<mxfile host="app.diagrams.net" modified="2021-08-29T16:27:53.104Z" agent="5.0 (X11; Linux x86_64) AppleWebKit/537.36 (KHTML, like Gecko) Chrome/92.0.4515.159 Safari/537.36" etag="EhfzposOBjDgg7SXgxjx" version="15.0.3" type="github">
  <diagram id="OfNVzm3rV_Hb3D0oMhvH" name="Page-1">
    <mxGraphModel dx="1422" dy="735" grid="1" gridSize="10" guides="1" tooltips="1" connect="1" arrows="1" fold="1" page="1" pageScale="1" pageWidth="827" pageHeight="1169" math="0" shadow="0">
      <root>
        <mxCell id="0" />
        <mxCell id="1" parent="0" />
        <mxCell id="IhRU6DyNc9BIXhvknG6n-7" style="edgeStyle=orthogonalEdgeStyle;rounded=0;orthogonalLoop=1;jettySize=auto;html=1;exitX=0;exitY=0.5;exitDx=0;exitDy=0;entryX=0.5;entryY=0;entryDx=0;entryDy=0;entryPerimeter=0;" edge="1" parent="1" source="IhRU6DyNc9BIXhvknG6n-1" target="IhRU6DyNc9BIXhvknG6n-2">
          <mxGeometry relative="1" as="geometry">
            <mxPoint x="70" y="270" as="targetPoint" />
          </mxGeometry>
        </mxCell>
        <mxCell id="IhRU6DyNc9BIXhvknG6n-8" value="" style="edgeStyle=orthogonalEdgeStyle;rounded=0;orthogonalLoop=1;jettySize=auto;html=1;" edge="1" parent="1" source="IhRU6DyNc9BIXhvknG6n-1" target="IhRU6DyNc9BIXhvknG6n-3">
          <mxGeometry relative="1" as="geometry" />
        </mxCell>
        <mxCell id="IhRU6DyNc9BIXhvknG6n-9" style="edgeStyle=orthogonalEdgeStyle;rounded=0;orthogonalLoop=1;jettySize=auto;html=1;exitX=1;exitY=0.5;exitDx=0;exitDy=0;entryX=0.5;entryY=0;entryDx=0;entryDy=0;" edge="1" parent="1" source="IhRU6DyNc9BIXhvknG6n-1" target="IhRU6DyNc9BIXhvknG6n-4">
          <mxGeometry relative="1" as="geometry">
            <mxPoint x="330" y="310" as="targetPoint" />
          </mxGeometry>
        </mxCell>
        <mxCell id="IhRU6DyNc9BIXhvknG6n-1" value="Major Category of Integration" style="rounded=0;whiteSpace=wrap;html=1;" vertex="1" parent="1">
          <mxGeometry x="195" y="220" width="120" height="60" as="geometry" />
        </mxCell>
        <mxCell id="IhRU6DyNc9BIXhvknG6n-2" value="build time integration&lt;br&gt;&lt;br&gt;before container gets loaded in the browser, it gets access source code" style="rounded=0;whiteSpace=wrap;html=1;" vertex="1" parent="1">
          <mxGeometry x="10" y="320" width="150" height="90" as="geometry" />
        </mxCell>
        <mxCell id="IhRU6DyNc9BIXhvknG6n-3" value="run time integration&lt;br&gt;&lt;br&gt;after container gets loaded in the browser, it get access to source code" style="rounded=0;whiteSpace=wrap;html=1;" vertex="1" parent="1">
          <mxGeometry x="170" y="320" width="170" height="90" as="geometry" />
        </mxCell>
        <mxCell id="IhRU6DyNc9BIXhvknG6n-4" value="server integration&lt;br&gt;&lt;br&gt;while sending down js to load up container, a server decides on whether or not to include source" style="rounded=0;whiteSpace=wrap;html=1;" vertex="1" parent="1">
          <mxGeometry x="350" y="320" width="180" height="90" as="geometry" />
        </mxCell>
        <mxCell id="IhRU6DyNc9BIXhvknG6n-14" value="" style="edgeStyle=orthogonalEdgeStyle;rounded=0;orthogonalLoop=1;jettySize=auto;html=1;" edge="1" parent="1" source="IhRU6DyNc9BIXhvknG6n-10" target="IhRU6DyNc9BIXhvknG6n-13">
          <mxGeometry relative="1" as="geometry" />
        </mxCell>
        <mxCell id="IhRU6DyNc9BIXhvknG6n-16" value="" style="edgeStyle=orthogonalEdgeStyle;rounded=0;orthogonalLoop=1;jettySize=auto;html=1;" edge="1" parent="1" source="IhRU6DyNc9BIXhvknG6n-10" target="IhRU6DyNc9BIXhvknG6n-15">
          <mxGeometry relative="1" as="geometry" />
        </mxCell>
        <mxCell id="IhRU6DyNc9BIXhvknG6n-10" value="container" style="rounded=0;whiteSpace=wrap;html=1;" vertex="1" parent="1">
          <mxGeometry x="170" y="20" width="110" height="60" as="geometry" />
        </mxCell>
        <mxCell id="IhRU6DyNc9BIXhvknG6n-13" value="component" style="rounded=0;whiteSpace=wrap;html=1;" vertex="1" parent="1">
          <mxGeometry x="90" y="120" width="110" height="60" as="geometry" />
        </mxCell>
        <mxCell id="IhRU6DyNc9BIXhvknG6n-15" value="component" style="rounded=0;whiteSpace=wrap;html=1;" vertex="1" parent="1">
          <mxGeometry x="270" y="120" width="110" height="60" as="geometry" />
        </mxCell>
        <mxCell id="IhRU6DyNc9BIXhvknG6n-17" value="" style="shape=link;html=1;" edge="1" parent="1">
          <mxGeometry width="100" relative="1" as="geometry">
            <mxPoint y="200" as="sourcePoint" />
            <mxPoint x="820" y="200" as="targetPoint" />
          </mxGeometry>
        </mxCell>
      </root>
    </mxGraphModel>
  </diagram>
</mxfile>
